# AST/ASF file generated using VICON BodyLanguage
# -----------------------------------------------
:version 1.10
:name VICON
:units
  mass 1.0
  length 0.45
  angle deg
:documentation
   .ast/.asf automatically generated from VICON data using
   VICON BodyBuilder and BodyLanguage model FoxedUp or BRILLIANT.MOD
:root
   order TX TY TZ RX RY RZ
   axis XYZ
   position 0 0 0  
   orientation 0 0 0 
:bonedata
  begin
     id 1 
     name lhipjoint
     direction 0.440178 -0.822639 0.359871 
     length 2.53113 
     axis 0 0 0  XYZ
  end
  begin
     id 2 
     name lfemur
     direction 0.34202 -0.939693 0  
     length 7.88132  
     axis 0 0 20  XYZ
    dof rx ry rz
    limits (-160.0 20.0)
           (-70.0 70.0)
           (-60.0 70.0)
  end
  begin
     id 3 
     name ltibia
     direction 0.34202 -0.939693 0   
     length 8.43783   
     axis 0 0 20   XYZ
    dof rx
    limits (-10.0 170.0)
  end
  begin
     id 4 
     name lfoot
     direction 0.0886351 -0.243523 0.965837   
     length 2.63414   
     axis -90 7.62852e-016 20   XYZ
    dof rx rz
    limits (-45.0 90.0)
           (-70.0 20.0)
  end
  begin
     id 5 
     name ltoes
     direction 1.53703e-011 -4.21717e-011 1   
     length 1.31427   
     axis -90 7.62852e-016 20   XYZ
    dof rx
    limits (-90.0 20.0)
  end
  begin
     id 6 
     name rhipjoint
     direction -0.399779 -0.839773 0.367367   
     length 2.47948  
     axis 0 0 0  XYZ 
  end
  begin
     id 7 
     name rfemur
     direction -0.34202 -0.939693 0   
     length 7.74806   
     axis 0 0 -20   XYZ
    dof rx ry rz
    limits (-160.0 20.0)
           (-70.0 70.0)
           (-70.0 60.0)
  end
  begin
     id 8 
     name rtibia
     direction -0.34202 -0.939693 0   
     length 8.74432   
     axis 0 0 -20   XYZ
    dof rx
    limits (-10.0 170.0)
 end
 begin
     id 9 
     name rfoot
     direction -0.108514 -0.298139 0.948334   
     length 2.66102  
     axis -90 -7.62852e-016 -20   XYZ
    dof rx rz
    limits (-45.0 90.0)
           (-20.0 70.0)
  end
  begin
     id 10 
     name rtoes
     direction -1.53392e-011 -4.22077e-011 1   
     length 1.31983   
     axis -90 -7.62852e-016 -20   XYZ
    dof rx
    limits (-90.0 20.0)
  end
  begin
     id 11 
     name lowerback
     direction 0.0113257 0.999866 0.0118602   
     length 2.58694   
     axis 0 0 0   XYZ
    dof rx ry rz
    limits (-20.0 45.0)
           (-30.0 30.0)
           (-30.0 30.0)
  end
  begin
     id 12 
     name upperback
     direction -0.0164747 0.995193 -0.0965375   
     length 2.52368   
     axis 0 0 0   XYZ
    dof rx ry rz
    limits (-20.0 45.0)
           (-30.0 30.0)
           (-30.0 30.0)
  end
  begin
     id 13 
     name thorax
     direction -0.0194301 0.99433 -0.104552   
     length 2.56099   
     axis 0 0 0   XYZ
    dof rx ry rz
    limits (-20.0 45.0)
           (-30.0 30.0)
           (-30.0 30.0)
  end
  begin
     id 14 
     name lowerneck
     direction 0.0148543 0.995587 -0.092657   
     length 1.71582   
     axis 0 0 0   XYZ
    dof rx ry rz
    limits (-20.0 45.0)
           (-30.0 30.0)
           (-30.0 30.0)
  end
  begin
     id 15 
     name upperneck
     direction -0.0135467 0.993656 -0.111639   
     length 1.68937   
     axis 0 0 0   XYZ
    dof rx ry rz
    limits (-20.0 45.0)
           (-30.0 30.0)
           (-30.0 30.0)
  end
  begin
     id 16
     name head
     direction -0.00615349 0.999547 -0.029448  
     length 1.7462  
     axis 0 0 0   XYZ
    dof rx ry rz
    limits (-20.0 45.0)
           (-30.0 30.0)
           (-30.0 30.0)
  end
  begin
     id 17 
     name lclavicle
     direction 0.988267 0.149885 0.0293713  
     length 4.47222  
     axis 0 0 0   XYZ
    dof ry rz
    limits (-20.0 10.0)
           (0.0 20.0)
  end
  begin
     id 18 
     name lhumerus
     direction 1 -4.48986e-011 -1.14833e-027   
     length 5.37148   
     axis 180 -30 -90   XYZ
    dof rx ry rz
    limits (-60.0 90.0)
           (-90.0 90.0)
           (-90.0 90.0)
  end
  begin
     id 19
     name lradius
     direction 0.999998 0.00170963 -0.000987055   
     length 3.94212   
     axis 180 -30 -90   XYZ
    dof rx
    limits (-10.0 170.0)
  end
  begin
     id 20
     name lwrist
     direction 0.999998 7.53149e-005 -0.00194706   
     length 1.97106   
     axis 4.65056e-015 90 90   XYZ
    dof ry
    limits (-180.0 0.0)
 end
  begin
     id 21 
     name lhand
     direction 1 -4.48973e-011 -1.31746e-026   
     length 1.17917   
     axis 8.4065e-015 90 90   XYZ
    dof rx rz
    limits (-90.0 90.0)
           (-45.0 45.0)
  end
  begin
     id 22 
     name lfingers
     direction 1 -4.49107e-011 -2.63492e-026   
     length 0.950679   
     axis 1.6813e-014 90 90   XYZ
    dof rx
    limits (0.0 90.0)
  end
  begin
     id 23
     name lthumb
     direction 0.707107 -6.35048e-011 0.707107   
     length 1.36499   
     axis -90 45 2.85299e-015   XYZ
    dof rx rz
    limits (-45.0 45.0)
           (-45.0 45.0)
  end
  begin
     id 24 
     name rclavicle
     direction -0.996699 0.0642895 -0.0495725   
     length 4.62611  
     axis 0 0 0   XYZ 
    dof ry rz
    limits (-10.0 20.0)
           (-20.0 0.0)
  end
  begin
     id 25 
     name rhumerus
     direction -1 -4.48919e-011 -2.41059e-027  
     length 5.4981   
     axis 180 30 90   XYZ
    dof rx ry rz
    limits (-90.0 60.0)
           (-90.0 90.0)
           (-90.0 90.0)
  end
  begin
     id 26 
     name rradius
     direction -0.999999 0.00118101 -0.000681858   
     length 3.48381   
     axis 180 30 90   XYZ
    dof rx
    limits (-10.0 170.0)
  end
  begin
     id 27 
     name rwrist
     direction -0.999999 0.000321823 -0.00132288   
     length 1.7419   
     axis 4.65056e-015 -90 -90   XYZ
    dof ry
    limits (-180.0 0.0)
  end
  begin
     id 28
     name rhand
     direction -1 -4.49022e-011 -1.31746e-026   
     length 1.34932   
     axis 8.4065e-015 -90 -90   XYZ
    dof rx rz
    limits (-90.0 90.0)
           (-45.0 45.0)
  end
  begin
     id 29
     name rfingers
     direction -1 -4.49178e-011 -2.63492e-026   
     length 1.08785   
     axis 1.6813e-014 -90 -90   XYZ
    dof rx
    limits (0.0 90.0)
  end
  begin
     id 30
     name rthumb
     direction -0.707107 -6.34713e-011 0.707107   
     length 1.56195   
     axis -90 -45 -2.85299e-015   XYZ
    dof rx rz
    limits (-45.0 45.0)
           (-45.0 45.0)
  end
:hierarchy
  begin
    root lhipjoint rhipjoint lowerback
    lhipjoint lfemur
    lfemur ltibia
    ltibia lfoot
    lfoot ltoes
    rhipjoint rfemur
    rfemur rtibia
    rtibia rfoot
    rfoot rtoes
    lowerback upperback
    upperback thorax
    thorax lowerneck lclavicle rclavicle
    lowerneck upperneck
    upperneck head
    lclavicle lhumerus
    lhumerus lradius
    lradius lwrist
    lwrist lhand lthumb
    lhand lfingers
    rclavicle rhumerus
    rhumerus rradius
    rradius rwrist
    rwrist rhand rthumb
    rhand rfingers
  end

#!OML:ASF X:\für Bonn\!DataBase\2005_08_10_Bjorn_Final\c3d\bjorn.ASF
:FULLY-SPECIFIED
:DEGREES
16
root 1.59129 19.1412 3.32228 -178.58 -10.7371 -178.738
lowerback -6.29195 2.02814 5.24344
upperback 4.74357 2.01763 0.608022
thorax 8.7366 1.22684 -2.02315
lowerneck -3.97246 -2.57944 -3.17731
upperneck 27.9544 -5.54226 -1.25112
head 9.49691 -3.93048 -0.543149
rclavicle -8.54774e-015 -1.35174e-014
rhumerus -51.1081 -41.3525 -54.3958
rradius 17.7317
rwrist 21.8518
rhand -10.1837 4.42584
rfingers 7.12502
rthumb 15.8067 -24.9488
lclavicle -8.54774e-015 -1.35174e-014
lhumerus -20.061 -33.0853 76.4083
lradius 54.0901
lwrist -24.6978
lhand -40.0926 -28.5558
lfingers 7.12502
lthumb -13.0571 1.01549
rfemur -11.1925 -14.1331 20.6962
rtibia 31.8355
rfoot -20.1075 8.15342
rtoes -22.2617
lfemur -14.8492 2.76385 -17.9984
ltibia 33.3045
lfoot -13.7052 -9.19404
ltoes 1.50903
17
root 1.58028 19.138 3.32158 -178.824 -11.3195 -178.8
lowerback -5.93482 1.92426 5.00471
upperback 4.87329 1.92818 0.438826
thorax 8.656 1.17378 -2.09004
lowerneck -4.45921 -2.73945 -3.38171
upperneck 27.9172 -5.74064 -0.894372
head 9.59603 -3.97684 -0.414727
rclavicle -3.16565e-014 -1.11319e-014
rhumerus -50.7303 -39.3781 -56.6692
rradius 18.5339
rwrist 20.7906
rhand -10.0274 4.59435
rfingers 7.12502
rthumb 15.9572 -24.7683
lclavicle -3.16565e-014 -1.11319e-014
lhumerus -19.6916 -33.6721 75.265
lradius 56.2654
lwrist -24.0986
lhand -40.8926 -28.8564
lfingers 7.12502
lthumb -13.8281 0.66399
rfemur -10.9432 -13.4483 20.6412
rtibia 31.9976
rfoot -20.2278 6.87747
rtoes -23.1081
lfemur -14.5747 2.712 -18.0962
ltibia 33.1973
lfoot -13.6362 -9.67311
ltoes 1.14166
18
root 1.56958 19.1355 3.32027 -179.076 -11.8795 -178.861
lowerback -5.58421 1.84942 4.77475
upperback 5.01443 1.87253 0.263673
thorax 8.59527 1.13748 -2.16216
lowerneck -4.89198 -2.93474 -3.59355
upperneck 27.781 -5.97482 -0.536331
head 9.65168 -4.03512 -0.284024
rclavicle -2.92213e-014 -2.60408e-014
rhumerus -50.4948 -37.5451 -58.7272
rradius 19.3206
rwrist 20.0745
rhand -9.86997 4.98928
rfingers 7.12502
rthumb 16.1089 -24.3612
lclavicle -2.92213e-014 -2.60408e-014
lhumerus -19.244 -34.2564 74.1057
lradius 58.498
lwrist -23.4134
lhand -41.4879 -29.0069
lfingers 7.12502
lthumb -14.4018 0.473482
rfemur -10.6957 -12.6496 20.5731
rtibia 32.203
rfoot -20.298 5.7018
rtoes -23.4774
lfemur -14.2873 2.72088 -18.1911
ltibia 33.0823
lfoot -13.546 -10.2145
ltoes 0.944334
19
root 1.55878 19.135 3.32048 -179.331 -12.4614 -178.905
lowerback -5.21317 1.77919 4.59932
upperback 5.15508 1.81835 0.0546362
thorax 8.52599 1.10557 -2.30039
lowerneck -5.29967 -3.14577 -3.76597
upperneck 27.5568 -6.2385 -0.111949
head 9.67385 -4.09121 -0.137495
rclavicle 1.2424e-016 -4.77083e-015
rhumerus -50.5273 -36.063 -60.4249
rradius 20.068
rwrist 20.049
rhand -9.71144 5.66441
rfingers 7.12502
rthumb 16.2615 -23.6737
lclavicle 1.2424e-016 -4.77083e-015
lhumerus -18.709 -34.8029 72.8703
lradius 60.7534
lwrist -22.688
lhand -41.8507 -29.1739
lfingers 7.12502
lthumb -14.7513 0.281196
rfemur -10.483 -11.8357 20.5068
rtibia 32.4637
rfoot -20.3096 4.68606
rtoes -23.4518
lfemur -13.9882 2.63711 -18.2712
ltibia 32.9532
lfoot -13.4587 -10.6668
ltoes 0.683591
20
root 1.54758 19.1342 3.32126 -179.613 -13.0111 -178.947
lowerback -4.80094 1.71951 4.42054
upperback 5.30038 1.77395 -0.129147
thorax 8.43731 1.07569 -2.40909
lowerneck -5.69035 -3.36328 -4.00176
upperneck 27.2775 -6.49383 0.314994
head 9.67709 -4.14718 0.0221876
rclavicle -1.82633e-014 1.2921e-014
rhumerus -50.6228 -34.627 -61.9695
rradius 20.7902
rwrist 20.3147
rhand -9.60204 6.51388
rfingers 7.12502
rthumb 16.3668 -22.8155
lclavicle -1.82633e-014 1.2921e-014
lhumerus -18.1518 -35.1785 71.7009
lradius 63.0648
lwrist -21.9676
lhand -41.9792 -29.276
lfingers 7.12502
lthumb -14.8751 0.17001
rfemur -10.2715 -11.0164 20.4196
rtibia 32.7918
rfoot -20.2584 3.81604
rtoes -23.2273
lfemur -13.6562 2.57921 -18.3524
ltibia 32.8195
lfoot -13.3801 -11.1193
ltoes 0.545778
21
root 1.5369 19.1348 3.32301 -179.882 -13.5771 -178.973
lowerback -4.40261 1.66207 4.27676
upperback 5.4363 1.72865 -0.339935
thorax 8.34912 1.04804 -2.56523
lowerneck -6.04568 -3.58935 -4.18618
upperneck 26.963 -6.77156 0.758216
head 9.66231 -4.20686 0.177127
rclavicle 2.28789e-014 -4.42296e-015
rhumerus -50.8768 -33.4213 -63.3113
rradius 21.4681
rwrist 21.021
rhand -9.54572 7.52602
rfingers 7.12502
rthumb 16.4211 -21.7989
lclavicle 2.28789e-014 -4.42296e-015
lhumerus -17.5078 -35.511 70.4798
lradius 65.378
lwrist -21.161
lhand -41.9127 -29.3887
lfingers 7.12502
lthumb -14.811 0.0620226
rfemur -10.136 -10.2012 20.3473
rtibia 33.2138
rfoot -20.2236 3.04375
rtoes -22.9746
lfemur -13.343 2.38874 -18.4245
ltibia 32.6726
lfoot -13.3145 -11.4426
ltoes 0.17586
22
root 1.52596 19.1366 3.32695 -180.167 -14.1207 -178.999
lowerback -3.97019 1.61261 4.14947
upperback 5.58639 1.68947 -0.557161
thorax 8.25787 1.02335 -2.73678
lowerneck -6.38749 -3.82822 -4.37759
upperneck 26.5909 -7.06309 1.22489
head 9.62809 -4.26938 0.340226
rclavicle 7.66563e-015 -9.11925e-015
rhumerus -51.1646 -32.3015 -64.5996
rradius 22.1504
rwrist 21.9821
rhand -9.49883 8.53755
rfingers 7.12502
rthumb 16.4662 -20.7837
lclavicle 7.66563e-015 -9.11925e-015
lhumerus -16.7695 -35.6627 69.2554
lradius 67.6765
lwrist -20.4836
lhand -41.787 -29.5657
lfingers 7.12502
lthumb -14.69 -0.106124
rfemur -10.0554 -9.3837 20.2665
rtibia 33.7659
rfoot -20.2242 2.28571
rtoes -22.9913
lfemur -13.0179 2.24509 -18.4991
ltibia 32.5228
lfoot -13.2492 -11.7678
ltoes -0.197205
23
root 1.51581 19.1396 3.33225 -180.461 -14.6379 -179.023
lowerback -3.49968 1.57154 4.01912
upperback 5.72338 1.66033 -0.772433
thorax 8.13073 1.00181 -2.90375
lowerneck -6.73064 -4.06121 -4.57931
upperneck 26.1959 -7.34279 1.70275
head 9.58889 -4.32633 0.508951
rclavicle -9.7156e-015 4.07509e-015
rhumerus -51.4994 -31.2553 -65.7988
rradius 22.7838
rwrist 23.1119
rhand -9.57593 9.54623
rfingers 7.12502
rthumb 16.392 -19.7811
lclavicle -9.7156e-015 4.07509e-015
lhumerus -15.9888 -35.705 68.0797
lradius 69.941
lwrist -19.8548
lhand -41.6801 -29.7683
lfingers 7.12502
lthumb -14.587 -0.301225
rfemur -10.0547 -8.52304 20.1843
rtibia 34.4872
rfoot -20.258 1.52822
rtoes -23.3569
lfemur -12.6662 2.02937 -18.5787
ltibia 32.3489
lfoot -13.1713 -12.019
ltoes -0.555801
24
root 1.50628 19.1451 3.3391 -180.761 -15.1495 -179.03
lowerback -3.0392 1.53192 3.89918
upperback 5.88414 1.62627 -0.990327
thorax 8.03569 0.97799 -3.07909
lowerneck -7.15628 -4.31237 -4.7436
upperneck 25.7931 -7.63617 2.15818
head 9.56311 -4.38546 0.658397
rclavicle 4.47762e-014 -8.34896e-015
rhumerus -51.7961 -30.316 -66.989
rradius 23.3622
rwrist 24.3668
rhand -9.78752 10.478
rfingers 7.12502
rthumb 16.1882 -18.8661
lclavicle 4.47762e-014 -8.34896e-015
lhumerus -15.0981 -35.5783 66.9328
lradius 72.1585
lwrist -19.2523
lhand -41.5714 -30.0034
lfingers 7.12502
lthumb -14.4822 -0.528805
rfemur -10.2044 -7.76782 20.1051
rtibia 35.4157
rfoot -20.2225 0.847913
rtoes -23.7404
lfemur -12.3123 1.7796 -18.6448
ltibia 32.1546
lfoot -13.1126 -12.1991
ltoes -1.04471
